<svg width="28" height="28" viewBox="0 0 28 28" fill="none" xmlns="http://www.w3.org/2000/svg">
<path d="M14 23.6145C13.8179 23.4016 13.5768 23.1147 13.2945 22.7669C12.6447 21.9663 11.7791 20.8456 10.9145 19.5641C10.0489 18.2812 9.19053 16.8463 8.55005 15.4167C7.90664 13.9805 7.5 12.5863 7.5 11.375C7.5 7.78114 10.4061 4.875 14 4.875C17.5939 4.875 20.5 7.78114 20.5 11.375C20.5 12.5863 20.0934 13.9805 19.4499 15.4167C18.8095 16.8463 17.9511 18.2812 17.0855 19.5641C16.2209 20.8456 15.3553 21.9663 14.7055 22.7669C14.4232 23.1147 14.1821 23.4016 14 23.6145ZM11.8787 13.4963C12.4413 14.0589 13.2044 14.375 14 14.375C14.7956 14.375 15.5587 14.0589 16.1213 13.4963C16.6839 12.9337 17 12.1706 17 11.375C17 10.5793 16.6839 9.81629 16.1213 9.25368C15.5587 8.69107 14.7956 8.375 14 8.375C13.2044 8.375 12.4413 8.69107 11.8787 9.25368C11.3161 9.81629 11 10.5793 11 11.375C11 12.1706 11.3161 12.9337 11.8787 13.4963Z" stroke="#42515A"/>
</svg>
