<svg width="28" height="28" viewBox="0 0 28 28" fill="none" xmlns="http://www.w3.org/2000/svg">
<path d="M22.75 19.0929V8.77244C22.75 8.53442 22.6554 8.30615 22.4871 8.13785C22.3188 7.96955 22.0906 7.875 21.8526 7.875H6.14744C5.90942 7.875 5.68115 7.96955 5.51285 8.13785C5.34455 8.30615 5.25 8.53442 5.25 8.77244V19.0929C5.25 19.331 5.34455 19.5592 5.51285 19.7275C5.68115 19.8958 5.90942 19.9904 6.14744 19.9904H21.8526C22.0906 19.9904 22.3188 19.8958 22.4871 19.7275C22.6554 19.5592 22.75 19.331 22.75 19.0929Z" stroke="#42515A" stroke-linecap="round" stroke-linejoin="round"/>
<path d="M22.75 10.4889L14 14.5359L5.25 10.4889" stroke="#42515A" stroke-linecap="round" stroke-linejoin="round"/>
</svg>
