<svg width="28" height="28" viewBox="0 0 28 28" fill="none" xmlns="http://www.w3.org/2000/svg">
<path d="M16.1524 18.1878L16.4172 18.2863L16.6382 18.1104L18.4696 16.6531L21.981 18.9154L21.9875 18.9196L21.9942 18.9236C22.0643 18.9658 22.1237 19.0237 22.1676 19.0927C22.2115 19.1618 22.2387 19.2401 22.2472 19.3214C22.2556 19.4028 22.245 19.4851 22.2162 19.5616C22.1874 19.6382 22.1412 19.7071 22.0813 19.7627L22.0756 19.768L22.07 19.7735L20.3845 21.4384L20.3845 21.4385C20.2018 21.619 19.9773 21.7514 19.731 21.824C19.4847 21.8966 19.2242 21.9071 18.9729 21.8546L18.9717 21.8543C15.7516 21.1893 12.7834 19.6321 10.4061 17.3606C8.08531 15.068 6.47926 12.1514 5.78265 8.96443C5.73011 8.72171 5.74112 8.46954 5.81463 8.23233C5.88817 7.99499 6.02177 7.78067 6.20249 7.61014L6.20251 7.61017L6.20649 7.60633L7.95365 5.92084L7.95933 5.91535L7.96484 5.90969C8.02036 5.85264 8.08806 5.80889 8.16289 5.78171C8.23771 5.75453 8.31771 5.74463 8.3969 5.75275C8.4761 5.76088 8.55242 5.78681 8.62017 5.82861C8.68792 5.87041 8.74534 5.927 8.78812 5.99413L8.78797 5.99422L8.79524 6.00499L11.1237 9.4577L9.64247 11.2381L9.45382 11.4648L9.56103 11.7396C10.1345 13.2092 11.0272 14.533 12.1747 15.6154C13.2974 16.7523 14.6549 17.6303 16.1524 18.1878Z" stroke="#42515A"/>
</svg>
