<svg width="20" height="20" viewBox="0 0 20 20" fill="none" xmlns="http://www.w3.org/2000/svg">
<path d="M17.5 17.5L13.761 13.755L17.499 17.5H17.5ZM15.833 8.75C15.833 10.6287 15.0867 12.4304 13.7583 13.7588C12.4299 15.0872 10.6282 15.8335 8.74952 15.8335C6.87085 15.8335 5.06914 15.0872 3.74072 13.7588C2.41231 12.4304 1.66602 10.6287 1.66602 8.75C1.66602 6.87134 2.41231 5.06963 3.74072 3.74121C5.06914 2.4128 6.87085 1.6665 8.74952 1.6665C10.6282 1.6665 12.4299 2.4128 13.7583 3.74121C15.0867 5.06963 15.833 6.87134 15.833 8.75V8.75Z" stroke="#96A0A5" stroke-width="2" stroke-linecap="round"/>
</svg>
