<svg width="40" height="40" viewBox="0 0 40 40" fill="none" xmlns="http://www.w3.org/2000/svg">
<path d="M11.667 18.333H15V21.667H11.667V18.333ZM11.667 25H15V28.333H11.667V25ZM18.334 18.333H21.667V21.667H18.334V18.333ZM18.334 25H21.667V28.333H18.334V25ZM25 18.333H28.334V21.667H25V18.333ZM25 25H28.334V28.333H25V25Z" fill="#959CA1"/>
<path d="M8.333 36.334H31.667C32.5508 36.3329 33.3981 35.9813 34.023 35.3563C34.6478 34.7312 34.9992 33.8838 35 33V9.667C34.9989 8.78336 34.6474 7.93621 34.0226 7.31138C33.3978 6.68655 32.5506 6.33506 31.667 6.334H28.333V3H25V6.334H15V3H11.667V6.334H8.333C7.44936 6.33506 6.60221 6.68655 5.97738 7.31138C5.35255 7.93621 5.00106 8.78336 5 9.667V33C5.00079 33.8838 5.35217 34.7312 5.97703 35.3563C6.60189 35.9813 7.44919 36.3329 8.333 36.334ZM31.667 13L31.668 33H8.333V13H31.667Z" fill="#959CA1"/>
</svg>
